<mxfile host="65bd71144e">
    <diagram id="oyjhkFeRAE5I5Wm2Id6n" name="Page-1">
        <mxGraphModel dx="654" dy="537" grid="1" gridSize="10" guides="1" tooltips="1" connect="1" arrows="1" fold="1" page="1" pageScale="1" pageWidth="827" pageHeight="1169" math="0" shadow="0">
            <root>
                <mxCell id="0"/>
                <mxCell id="1" parent="0"/>
                <mxCell id="3" value="" style="rounded=0;whiteSpace=wrap;html=1;fillColor=#fff;" vertex="1" parent="1">
                    <mxGeometry x="40" y="50" width="620" height="320" as="geometry"/>
                </mxCell>
                <mxCell id="9" value="" style="rounded=0;whiteSpace=wrap;html=1;fillColor=none;strokeColor=#FF8000;strokeWidth=3;" vertex="1" parent="1">
                    <mxGeometry x="400" y="120" width="210" height="150" as="geometry"/>
                </mxCell>
                <mxCell id="4" value="" style="rounded=0;whiteSpace=wrap;html=1;fillColor=none;strokeColor=#4D9900;strokeWidth=3;" vertex="1" parent="1">
                    <mxGeometry x="70" y="120" width="210" height="150" as="geometry"/>
                </mxCell>
                <mxCell id="5" value="" style="shape=image;verticalLabelPosition=bottom;labelBackgroundColor=#ffffff;verticalAlign=top;aspect=fixed;imageAspect=0;image=data:image/jpeg,/9j/4AAQSkZJRgABAQAAAQABAAD/2wCEAAkGBw8HBhUIBxIVFhMVFhsXGBcYFxcXIBgXIB0iGBYYHR8ZHSgiGBooJxUaIzMiKCkrLy4uHSszODYtQyguLisBCgoKDg0OGhAQGzIlICUvLS8tLy0yNTUvKy43LS0rKy01LS0tKy0tNzctKy0tLS0tLS0tLS81NS0tLS0tLS0tLf/AABEIAKMBNgMBIgACEQEDEQH/xAAbAAEAAwEBAQEAAAAAAAAAAAAABQYHBAMCAf/EAEYQAAIBAwEEBwQFCQUJAQAAAAABAgMEEQUGEiExByJBUWFxgRMUFTIjQoKRoRZScpKTscHR4TdTorLCMzU2RVRis9LxF//EABoBAQACAwEAAAAAAAAAAAAAAAABAgMFBgT/xAAqEQEBAAIBAwEIAgMBAAAAAAAAAQIRAwQhMQUSEyJBUWFx4ZGh0fDxI//aAAwDAQACEQMRAD8A3EAAAAAAAAAAAAAAAAAAAAAAAAAAAAAAAAAAAAAAAAAAAAAAAAAAAAAAAAAAAAAAAAAAAAAAAAAAAAAAAAAAAAAAAAAAAAAAAAAAAAAAAAAAAAAAAAAAAAAAAAAAAAAAAAAAAAAAAAAAAAAAAAAAAAAAAAAAAAAAAAAAAAAAAFW26t68bRahYVKkdzhNRnJJxfKWE+af4PwKJ8Wuv7+t+0n/ADNiq01VpunUWU1hrvT5oyHaDS3pGpytX8vOD74vl6rl6ExzPrXBnx5Tmwt1fP5RGsapewSr0bqulyaVWovJ8yK/KC+/6u4/bVP/AGJmpBVIOE+T4MrNzQdvWdKXZ+K7GZuOy9mT0nrLyYe7yvef3G29HO0Xx3RPZ3Ms16OIzzzkvqT9UsPxTLLfXcLCznd3TxCEXKT7kuJgWyOuy2e1yF6s7ny1F3wfP1WE15eJcOlfaWNxCGjWEk4tRqVGnwafWpx8uUv1SuWHxN7M/hVLVdrL3UNRnd069anGUsxhGpOKjHlFYTxySy+1nxZaxf3Nwqfvdxjm/pqnL9YhiwaZa+72+ZfNLi/DuRky1jGs9Q6v3HFbL3vaf5TPxa6/v637Sf8AMmdlPetX1VQqV63s4daf0k+XZHn2/uyVpJyeI8zWNltIWkaUqU/9pLrTf/d3eS5f/TztN6Xw8nUc28sr7M73v/ETABE7SbRW2zVkrvVZNRlLdjuxcm5YbxheCbIdjbpLA8rW4hd20bm3eYTipRffFrKf3M9QAISttVZ0dpI7P1Jv3iSyluvGWnJR3lwTwsk2NGwAAAAAAAAHPO+o07tWdSpBVZLMYOUVJrvUc5a4HQAAAAAAAAAAAAAAAAAAAAAACvbaaP8AE9M9rRX0lPMo+K+tH+PmiwgMXPw483HePLxWHEfq9t7Wh7WPOP4rtLhtpo/wzU/a0l9HVzJeEvrR/j6+BXy0urtw3/p0fUffG/z/ANipg6dRtvdrjC+V8V/I54xcpKMebPTLubdhx8uPJhM54rs0q29vX35fLHj5vsRPnjaUFbUFTXr4vtOu0tp3lzG2oLMpPCXj/IwZZbrkuu6i9TzfD48T/fusuwej++X3v1ZdSk+HjPs+7n54NHOPSbCOmafG0o8ori+99r9Wdhjdd0HSTpuGYfPzfyFU6UNL+KbGVlBZlSSrR+xxl98d5epaz5qQVSm4TWU1hrvXaTLq7eyzc0pvRFqfxDYyFKTzKhKVJ+S60P8ADKK9C5t4WWZJ0VyegbZ3ezVZvHHdz2+zfVfnKE0/QvXSFqnwnY+4uYvEnD2cf0p9RNeW9n0LZT4lcb8Kh9HMfyj6RrraGfGNPecH4z+jpf4IS+814ovQ5pXw/ZBXM1iVebqfZXUh6Yjn7R89H+1t1tBr13ZahublJ9Tdi00t+UcPi88Ehl3t+yMO0n3XwAoPRptddbSahdUNS3N2k4uG7Fxwm5Jp8XldVFZNza9urpfgUnbjbeejX0NF0Ol7a8qYxHi1DPy5Sw5SfPGVhcW1wzEV621enUHqFX2FWKW86MVGTS5tYiot+km/MmY1HtRpoK5sPtbS2s0x3FJblSDSqU853W+KafbF8cPwa7CxkWaTLtUtR2Dt7/a+G0dSpUU4uEnBNYcocIPOMpcFlLnjxZbSha3tbdWXSTQ0GjuewmobycW5Ny3svOeGN1Ep0gbW/kppcalGCnWqycacXnHDjKTxxaWVwXFtpcOZNlukSybWkGYwW11akrxSoRys+xapp+XGPD1mXHY6/vtQ0n2u0VBUaym44X1orHXxl7vHK5vlntFx0TLadABVYAAAAAAAAAAAAAAAAAAEbtBpcdX0yVtL5ucH3SXL07PJmRVKbpVHTqLEk2mu5rg0beUDpB0f2NdanQXCfVn4S7JevL08SY0PrfR+3h77HzPP4/Siahbe82ziua4rz7vU4NFtczdxPs4Lz7WTASxyLTKyaaDj63PDgy4Z4v8AX1C99H2j7sHqtdcXmNPy+tL15ff3lT0TTZatqUbSHJ8ZPuivmf8ADzZr1CjG3oqjRWIxSSXclwRWtl6J0ft5++y8Tx+f09AAQ6sAAGSdIK/JzpItNoY8IVN3ff6P0dVv7E4/cdHTVdyu6tps/aPr1Z7+PFv2VLPg3OX6pNdMWlfENj5XEVmVCaqfZ+SfpiWfslJ2BqVNrNvqV/erKtqEc9vGEVCPq5TlMzY+Jfow5ebPq2fT7SGn2FOyoLEacIwj5RWF+4yzof8A+LdQ83/5ZGtmM6Xe/wD590i16WrJqhcOTU8N9WUt+E+HNLLi8ce3zpj3li2XaytmMi6Ef98X3lT/AM1QuGu9IWnabpkri1uKdao11KdOSk3Lszj5F3t/0IDoS0epbabW1e6TXvDioZ4b0Y5bn5NzePLPaJNY3ZbvKaVyhrXwnpYutQr0atdqVSKjSjvyXyxUsdyjHGfEuT6TIr/luofsf6lZ1evLYjpUer3sJO3uN57yWerJLfx3yjKKbXd5mk0trdMq23vELy33fGrBNeabyn4YLZa7dkY7791G6J7O4e0t5qk6FSjQq5cYzi48ZVHOMVlLO6m1lcOJqZB7O7V2e0derR0mcpexxvNxcU1LOHHPNdVnnpW2Njqut1NHsqjdWnvZzFpS3Xie63zw/wCmSmW7V8dSeVD2o/trtfKl/rLF0p7NXOt2tG+0db1a2k5KGUt5PD4Z4OScI8HzWSu7Uf212vlS/wBZfte2us9n9SpWOqylB1U2p7uYxSaXWfZz7uHbgvd9tKzWrtU7HpVVpUVrtTaVaFTtai8PvluyxJLy3jQNM1GjqtlG906pGdOXKUfua8Gu1PiiH1vV9IvNIktVr286LXLfhLP6KTzvd2OJU+gqNRaTcyefZOrHcz+du9fw5bnLtK2SzaZbLppwAKLgAAAAAAAAAAAAAAAAAAHPfWkL60lbXCzGSw/5+a5nQAiyZTVYvqVlPTr6VpX5xeM967GvBricxoe3+j+82i1GgutTWJeMO/0/c2VnY/SPiuqJ1V9HTxKfj+bH1/cmS4nqfT88Oq9zj8/H4/XzW/YfR/h+m+81l9JVw34R+qv4+vgWUIEOx4OHHh45x4+IAAMwAAPK7toXlrK1uYqUJxcZRfbFrDX4kTs3srZ7Mqfwim4upjecpSm2lndWZN4Sy/vJsE7RoI7W9DtddtfdtWpRqRXFZynF98ZLDi/FMkQQlT7Loz0mzuFXVBza4pVJznH9VvEvXJb4xUY7seCR+gm23yiSTw5NT02hqtq7XUqcakH9WSzx7Gu5+K4lUl0V6Q6m/wCyqY/N9tUx/mz+JdgJlZ4LjL5cOkaPbaLa+66XSjThzaiub723xk/FtnDpuyVjpmsz1eypbtapvZe9JpbzzPdi3iOX3E4Re0yvHos/yecFccNzfxjmt7nwzjOM8MjdLIzjaX6Tpttow7FSz6Kcn+BpetaJa65be7atSjUiuKzzi++LXGL8U0UzYnYu7t9oJbSbVVIzuGnuxTzhtbrlJpJJqPVUY8EmaGWyvjSuM87UmHRXpEau+6U2vzXVqY/fn8S32NnS0+1ja2UIwpxWIxikkvuPcFbbfK0kngABCQAAAAAAAAAAAAAAAAAAAAB+TipxcZLKfBrwOHRtJp6Rauha8nJybfPjyXosL0O8BW4Y3KZWd4AALAAAAAAAAAAAAAAAAAAAAAAAAAAAAAAAAAAAAAAAAAAAAAAAAAAAAAAAAAAAAAAAAAAAAAAAAAAAAAAAAAAAAAAAAAAAAAAAAAAAAAAAAAAAAAAAAAAAAAAAAAAAAAAAAAAAAAAAAAAAAAAAAAAAAAAAAAAAAAAAAAAAAAAAAAAAAAAAAAAAAAAAAAAAAAAAAAAA/9k=;" vertex="1" parent="1">
                    <mxGeometry x="80" y="130" width="114.11" height="60" as="geometry"/>
                </mxCell>
                <mxCell id="6" value="" style="shape=image;verticalLabelPosition=bottom;labelBackgroundColor=#ffffff;verticalAlign=top;aspect=fixed;imageAspect=0;image=data:image/png,iVBORw0KGgoAAAANSUhEUgAAAToAAAChCAMAAABgSoNaAAAA9lBMVEX///91dXX/yytra2v/yipvb29xcXH1ggvW1tbi4uL/zDDf39//pQ5paWm3t7f5+fnr6+v/0jeAgICjo6P/ogCbm5v/qBWQkJC/v7/yeADx8fHFxcXOzs57e3uJiYmysrKUlJSqqqr1nCv8nQD/yBH+xQD/+/T+7sL6sCz3x3/2s0b68eP569f8uVL33Lj96Mr5z5j7vmn9rCL21KX+xnn13Zj7u1/56dP3iQD1mBD+vmXyjBD+sTz20Wn8zT36pzT26MTxjwP+3Hz+01D2yIz/6Kn/4Ir338L857P60Vv62a/7sF35vRXzz4v2yGr3wkj1vC3zw1v16zLiAAAIwElEQVR4nO2b/WObNhrHARkFB2M8g19mMLZnnDZNljSX3trccuu62+2la7vd///PnB5JgAA5wVkcl+35/GL7EZLF14/06JGwYSAIgiAIgiAIgiAIgiAIgiAIgiAIgiAIgiAIgiAIgiAIgiAIgiAIgiAIgiDIX47TF2eH7kJLOQ97Xx+6Dy3lojcOLw/diXbysjce3x66E+3kikkXXhy6F63k+Zjxj0P3opX0QLrw+tDdaCFn4ZjjH7oj7eNSSBe+PHRH2se19LreCf94cnt7cuAetYZXPSFdeCo+huGrA/eoNdxK6cYhpGNnYa8XYl7WjHFGeMU+XYF0V2o5ho9tnMipbswkO+dOV3a7Z9/983Cd+7y5zKIEU+xr4xsh3Td58bPUStHv9LwPM+WYZC/X/LW3fi1Ln6XHx+n5QTv4+XKqSNd7cyO0C1+IQlDuOH2mr+kP6jDzrN8fNP/6Gas0+9M3cRj+1SuUuzn69ka6Hd+F4sodW1smO8cjFTxiGF3Ptj2n8dcvPOItH+M+DsC4lyvXOzo6ytwOdqGEcsfWv/U1HWLWMIyEshfa+Ov7tklHj3MnTw0EWClc7x2TLne7i0y5Y+s7fVW9dPzFaxxZWizduSLdEfBOut3bTLnjbSGWSzcsYxhL8Lp54+9vsXQXYcnpcrdbP7eOM1J9dsGlq1lnJpvzuo2/v8XSvQx7JaeTbrd+/kWunJV+r62ql84w4miHhWCLpbsKy04n3K6knJXqQ+w26XaixdLdVp2Oud1NWTmr84O26t9duly5b3Pp3rwrK2d19CH2by7dWTZe17lyR1++LSvHRqy2bmPpXMfJ8otBPF1MYyXbyKWbQYlTmyXdqM/M1XyDWftR9WLfAav7VBn367DmdF9+VVXO0odYvXQ+W6LMQZvBfDicsM8rnmcEUBYPWarB8MxpdrmUzk14CbtOVQnqCnOi5CezQFqJenFu9UY75IF/guuw6nQa5Sx9FrtFOmb1oPNdz6RDdhHla2SwTIo1tG3K9QtItzICLyugXpQ35dp2XqHI1iKPai4uWRePpM6dnErp3tylnJX+V1d3i3TsdgmXjhUnA6EJTVjBnKdoNhGCyDwXpOsHtigQKvez9nndzE7lMnvqCaOwetJ9F17WNljJU8yeLypOp1VuS4htIl3CHMweDr3YMIbspihdxU68mNuZI4J0JiuhZBSxApMXCFeaedw7F7ETjcB16RKs/Lcgo9h144DkrUTcOokcZ7oEK3kCvxuXnU6vnNX5j64ul85R4NN/SToQKzb4Jv0K7IGsGrEyNpoNIR1TaClnrX4hR0IKCWawqcD9dMXe2HKwD2BwQpPCtzMr/EY75DMPxA/lZtOdyjF0lbl0pT0nGD0V6eYy4MHd2UFeNwZdQAounVIAjdIJvJst1ElrKN2OuTHNra4XcIkmMErzkOGbWRP75DxUnW67ctoQW9s5sWGklaUj2Q0FtLwpsKTi9rh0Q6UADJ6MkUpGB63ZBpfQ7udWUc4CkvgdJC4pmtgbF6HidNuV02exXDqq4NWkKxyEWW11AxRKiS+UIq7aLPwGmqnKFM2OwMEqS7cFsyWqAfSdGvvlx7BwujuU04dYLl2gAtqUpCPZlAOOYLsqUjLudaVmVSFm09GclU9WDoxUuJ6HXXtRmspgMC+6RdNdpu/eUxR+AHZzr3JW+pOmcoMISzL/iOzKvEjkAK8nYo4cmky4pSfWK5SS+VB655JPjoRM+rmvgoWqbdPKJLAPnodZ3n+ncvoQ20S6zDq1zTowaTHpKsNzkEkee1I3Kle7YmDL5TNbxHlLbphpdqt1PXtUeIB9d79yVkcXYneRDkZhyTF4RF4I6fqlBkAJiC58aFIvCRaLYEjsXDrDGUpnZKXgsINqpBc8plB1ztbS6e5TrrPRhNgdvY4uB90Ks7u8jos1khHaB+3zcNLtT2SOYU+k1k617T0v7H5eC6e7V7mOLsTuIh3MdUntWmPbXEdFDXtVmJNKJO5OeUpMIi4yeZqUvwB21xsp10l/qdfeRTpXjRkqWyMsX4UoZlqRDhqVJ0hPsRap8ioEp2ugXEcXYneRziByxVxcJ174uq504i3jB0u9aJFk8C8T0rmFg8U2P7eE5KwUUJ/gcYIX4bqZcp3Or/XaO0kXVJwoljlULZtYyGyiIt1chAk/TpSHBfgsNxDZhPq72Em8mxC7AzuczZTThdidpIMclhaznU9l5i5y2GK2iz2ZrJa15qe7TLq4pJIjvI4/caCM5sA2SfND9Adxsl43Va6zqT9gvJN0fOeEDmXcc81sg0TunCRyFC74zgkMONggoIkYet2hna3r+LaInNhmc+mxYidKWn3YjFIDzD64XL9pqlxnU39SbDfp+E2bJOnH0SLhAvHlXL5ft5zG0Yry/Tox2vjCjQRRLEKpzCb4+tce9mNH7tfxiyOxt7diFwewaKHNHz94GO/XjZXThdgdpfOF68D5Afc54RewrpuuwMNsW+4SS+9x5SYxN3vORI5JYbblui7bAeyrF5u0ukHw6Px41Fi5juYY2/FYhlSz+oRSeTbB3pSKRppThT6hpG+s8hK7CLfyWENenbDW+HTWNe2ilXxcxkQ5x5js/VTst+bK6UKsm0wm9R1Fn1n5FDWAN5UaS3lqZednWVEySZiK3YlHeMFKuWtfHHKxXJX9FAFrLTsKMuXx2URJGfzcmjR/uu/BKCfVupS/wuN8pxtNp7EuSfKdaBq5mstr560GHOfq7HrrXrj+YDX1ufQD/v2uhP9xYzVRLt18xKfYq5x9YuLdo5y1+YT/GtPx+vf0TuWsze/48P82Lv6oiqcIl/7x86H791lz/SHVKmdhdLiX2elGoxxGh0ac/W9TVW7zqa1/o3lqLsWUh9HhIbxnUx5GhwfycZNidHggJ582afoBo8ODOLu4wNwBQRAEQRAEQRAEQRAEQRAEQRAEQRAEQRAEQRAEQRAEQRAEQRAEQRAEQRAEQZC/CP8H9m+8eWiROFcAAAAASUVORK5CYII=;" vertex="1" parent="1">
                    <mxGeometry x="540" y="90" width="114" height="58.45" as="geometry"/>
                </mxCell>
                <mxCell id="7" value="" style="shape=image;verticalLabelPosition=bottom;labelBackgroundColor=#ffffff;verticalAlign=top;aspect=fixed;imageAspect=0;image=data:image/jpeg,/9j/4AAQSkZJRgABAQAAAQABAAD/2wCEAAoHCBIVFRgVFRYZFhIZGRgcHBgcFRoaGR0ZGhwZGhkYGhgcJC4lHB4rIRgaJzgnKy80NTU1GiU7QDszPy80NTEBDAwMEA8QHxISHjErJCs/Pz8/QD82MT0xOj86NDY9Pzc0NDQ0PTQ0PTY4NjQ9Pz40NDE2MT00NTE0NDQ2NDE0Pf/AABEIAHwBlQMBIgACEQEDEQH/xAAbAAEAAgMBAQAAAAAAAAAAAAAABQYBAwQCB//EAEMQAAIBAgMFBQQGBgoDAQAAAAECAAMRBAUSBiExQVEiYXGRsRMygaEzUnJzssEVI2KS0eEHFiQ0NUJTgoPCFNLwJf/EABoBAQACAwEAAAAAAAAAAAAAAAADBAIFBgH/xAAoEQEAAgIBBAIBAwUAAAAAAAAAAQIDEQQSITFBBVFhExTxIiORobH/2gAMAwEAAhEDEQA/APs0REBERAREQPJmqjXRr6SDbjY3njHVLU2PRT523SqZXi/ZOD/lO5vA8/hxlDk82MGWtJjtPmfpYxYJyVm0el1ieQZ6l9XImIgZiIgIiICIiAiIgIiICIiAiIgIiICIiAiIgIiICIiAiIgIiICIiAiIgIiICIiAiIgIiICIiAiIgIiIEZnz2onvIHzH5XlSEsW079lV6knyFv8AtK5OU+Yvvka+ohuODXWLf3K0ZBjNSaD7y7vEcj+UliZScBiTTdW5cCOoPH/7uk/nmOAphVO9xxH1eZ+PD4zZcLn1/bTN571/2q8jjT+tEV8S78LjKdS+lr24/wDxnSBKVl2L9k4blwP2Tx8uPwl0U3lrg8z9zSZ8THlDyMH6NtemZmYnJVxyKwUnf3cBfrLd8tMcbtOkERM+HbExMyR4REQEREBESq7X501MCjTJFRhdiOIU7gB3mBI5htFhqJKs2pxxVRcjxPAecjRttRvvp1Ldez6XmMk2UQKGrjU536L9lfHqZOHJ8MRb2NO32B6wPGW51Qr7kftfVO5vLn8JtzPMUoKHe+kkDcLm5ufykDitkh7VXoMaY1XbeSVtzQ/kZt25H9nXn+sX8LQJ7BYlaqLUW+lhcXFj04TpkVsz/daX2fzMlCYGYmtaingQfAgzZAREQEREBObG4paSNUa+lRc2Fz5Ta1RRxIHiQJHbSn+y1fs/mIG/LMxp4hS6X0g23ixuLH853Ss7CfQP943oss0BERAREQEREBERAREQEREBERAREQEREBERArG0r3qKvRb+Z/lIWSGePes3dYfIfmTI+cVz7dXIvP5b/jV1irDDtYTXSrltxN7Cw8Onz+c14l+U0I1jeQVj+lZim42kJZtn8ZqTQeK8O9eXlw8pVwwIvynZl+pTrBtuIHeD+UscLlTx8nVPj2qcrFF6anz6WPMMdp7K+9zPT+chSfOZJmJFy+Zfk5Oqe0eoV8WKKV0tNJrgHqAfObJyZc96a+FvLd+U652mG/Xjrb7iGrtGpmGYiJK8IiICUGkvtczOreFdt33Y7PoJfpQMc/8A4+Ya23IW1X/ZcWY/A38oF/ieFYEXG8Ge4CVnbn+7r94PwtLNKztz/d1+8H4WgdGT4taWCSo3uqhPjvNgPGVyjTxWYMxLaKQPfpXooA94zrx5P6Lp24XW/hqb87Sa2RVRhaduZYnx1H+UCCxWyVWmuujULOu+wBVjb6pB490ktlc8atelV+lUXB4FgNxuOolnlCwI05mwXhrfh3qS3zgbaVZ/0mV1Np1tu1G3udJeJQ6X+KH7bfgMvkCj53WcY9AGYLeluDG3HpJnajOjQQKv0r3sfqgcWt6SDzw//o0/tUvWedrN+NphvdtTHwLG8DOC2XrYhfaVqhUtvFwWYg8zc7vCaszwOJwiMmvXh3BU8bAnhu/yndy4z6BInaZVOFq6uGm48bi3zgcGwn0D/eN6LLNKzsJ9A/3jeiyzQEREBERAREQEREBERAREQEREBERAREQMQYmrEPpVm6AnyF5jaYiNy9iNqXi3u7HqzH4XNpzO1hMmc2IflOFtM3vMz7dJjrqIhpZrm88mCZ24DA6rMw7PIde893rM9xEblNe8UjctmXYckXI7PIde893rJSIla9uqVG1ptO5IiYkczpim8la6EdCfnYyTkLkb72HcPlcfwk1O2+MydfFrP12/w1OeNZJZiImwREREBIbaDJlxCbrLUW+luXep7jJmIFAwOd4nB/qqyFlHAE2IH7LcCJK/11o23U6l+nZ9byy1qKsLMoYdCAR85yfofC8fYp+6IFPq4/F41wtNSqAg9kkKCODM/MjpJXbJWXCoGbU4dAWta50tc2lop0wosAAOgFh5TFSmrCzKGHQgH1gQOWYNa+ASmd2pDY9CGJB85AZbmlXAu1KqhKE3t3/WQ8CDL8iACwAA6AWE14jDU3FnRWHRlB9YFWx+2aaSKKNrPAsAAO+wJvPWyGUOrNiKoIdr6Qfe7W9mPjLDRyvDobrSRT1Ci87YFD2movh8UMSo7JKsDy1AWKnxHrJE7a0tN/Zvr+rutf7V+HwlnqU1YEMAwPEEXHkZzUssw6HUtJA3UILwPn4NU4um9Uaajuj25hS1lFuW4Sz7X5O1ZVqILugIKjiy8d3eDLC1FSblVJ6kC/nNsCmZXteFULXVi67tSgb7fWBIsZx51nNTFqy0kK0UGpieduF7bh4S518uoOdT00ZupUE+c208MirpCqF+qFAHlAr+wf8Ad2+8b0WWea6dNVFlAUdAAPSbICIiAiIgIiICIiAiIgIiICIiAiIgIiIHmcGdPpov3i3mQPznfIfaV7UgOrDyAJ/hK3Mt04Lz+EmCvVkrH5VWo1hOFm5zbianKb8BgtVmYdnkOvee719eNrERG5dJ1RSu5MBgdVmYdnkOvee71kxESC95tKpa02nckTBkDtBmJH6pDY27Z8eC/wAZNxeNbkZIpX+IRZLxSNy6MdnlNCVQa27jZR8efwkTUz6ueBVfBQfxXkXNmHw7u2lFZ3PJQSfHdy751eD4vjYo10xM/c92utnvafOktgtpsTSbUCj7rEMvL/bbpLdku11GsQlQeyqHcLm6k9A3I9x8zPndegyMVdWVh/lYEHyPKa5epjrjjprERH4Q2tNp3L7fEpexOes/9nqG7Adhid5A4oepA3juB6S6TN4REQEjc0zelh9PtNXavay34cfWSUpv9IHCl4v6LAkf64YTq/7hmP64YPq/7hnrA7O4RqaMaQLFVJOpuJAJ5zf/AFYwf+kP3m/jA95hnlGiiO2ohwCoA7RFgb25cROzBYtKyCohujefQg984s1yKlXRFN00blK8hYC2/iNwnXluCShTWml9K8zxJO8kwOyInm4geomJ5RweBB8DeB7iJiBmJ4RweBB8Dee4CJSqONqnMTT9o/s9bDTqOm2gm1pdYCImtaincCCe4iBsiIgInkkCeoCJrZwOJA8TNkBERAREQEREBERAREQEREDErG1tW2gdAx87AehlmlWzzDa612HZCqFHJjvJPgLzXfKW1xpWeJqMsTPpC4HBau0w7PEDr3nu9fWXiJx179Utpa02nckRMGRTOmLy7AAk8ACT4DfKJVqF2LHixJPid8u2OBNOoBxKP+EyjTpfgKxq9vfZR5kzuITmyuW0a7t7YkIi6j2tI4gdpuQ38iJZKu0uFoD2WFp+0YmwCLZSftWu58Ab9ZWdmMoTE1GR2Kqi6jptc7wLXPDj0lnfNcvwQK0QGfgdHaP+6ofS5t0nRKTFLaTCYgezxVP2bjcQ4uoPc1rqfEDxlZ2py6jQqqKJJR0DjtahvZh2W5jdzvLQuaZdjQFqqFqcBr7Lf7ag4juvv6Sq7TZSmGqhFYsjJrGq1xcsLXHHhxgRmFxDU3R195GDD4G9vDlPs1NwyhhwIBHgd4nxQz7JlaEUaQPEU0B8QogdcREBKb/SBwpeL+iy5Sm/0gcKXi/osDowm1uGREUh7qig2QcQADznTR2uwzMqgPdiAOxzJsOc24HI8K1NGNFCSikm3EkC5nSmRYRSGFFAQQQbcCOBgRe3NRlpIVYqdfIkf5W6TdTqN+jtVzq9iTe5vex33nPt79Cn3n/VptT/AA3/AID6GBWspq4qupoUmYAsSzljuWwABbiBuO4cZYMnyP8A8Rnr1agZVQ8ARbmxN+O4fOa9gVHs6h56wPJf5yS2uYjC1Lfs38NQvArSHFZhUazaKK8t9gOQsPeab8TslVpKXo1SzrvsAVbd9Ug8e6cmR4PHNT1YdwqFjcagDqFr33eEkf0fm/8Aqj98f+sDv2Vzpq6slT6RAN/1l4XI6jnIOrVr47ENTD6KalrLvsFU2uQPeYyR2cyLE0a/tKmnSVYGzXN2seFuojNNmaq1DWwz6WJJ030kE8dLdD0MDlxeyVWkuujULOu+wBVj9kg8e6SpweLr4VUc+zrBgdVyCQL8dPA7/lIps4zHD/TJqTqyi376bpaMmzNMRT1qLHgyniD074Hz5MuqHE+wD/rNRGu7cQt7348Jc8iy6phlqNWqB1IBvdjYLqJ97xkDR/xQ/bb8Bln2mJGFq246flcX+UCq1cVicfVK0yUpDlchQvIvbiT0nTW2NqKL06t3HLSVv4MDunfsIq+xcj3i5v8AAC0tECo7MZ3ULnD176xcKze9ccVbr3GcW1uMeni0YM1lVG0hiAbMTvA8JjOABmKFeOukTbqbA/K0bVqDjaYPAimD++YHr9A4vEj2tWoFLb1VrmwPDcNyidmf5m2Gp08PRP6zSAW4kDhu/aJvLdPnWeLUfHMqGz6kCEncCFBEDsw+x9V11Vaumo2+1i5HixPGaBWxOX1VVm10W32uSpXnpv7rCd36Pzb/AFR++P8A1nNjMizKqAKjq4BuLsNx8oF3pOGUMDcEAg9x3ibJxZTQZKKI9tSqAbG43d87YCIiAiIgIiICIiAiIgYnirTVhYgEdDNkxPJiJjUiFxWVEb0N/wBknf8AA/x85GMpBsQQRyIsZbLzRiMMjizC/fzHgZpeX8Pjybti7T9elrHybV7W7qzMWkhissdd69pfmPhz+HlOCc1yOLlwW1kjX/F6mSt43ElpR8dhjTdkPI7u9TwPlLwJx4/JmxA7A/WLwbgtvqsZsPhuROLN0amYlDyabrv6U1XYAgEgEWIBIBHQjmJ5m3EYd6bFXUq44qRv/mO+ap2DWrxmWZZZSQ0UorW7lG6/U1TvJ7xcyl16uo8wo3KuosFW99IJ5b5rm3DYZ6jhEUu54KB8+4d53QOnJcvNeslMDcTdu5BvY+W7xIn2CQWzORjDIS1jWe2phwA5IO7v5n4SegIiICUz+kE7qXi/osuc1VKKN7yhrdQD6wNWWfQ0/sJ+ETqnlQBuG6eoFV2++hT7z/q030/8N/4D6GT9SkrbmUMO8A+sezW2mw08LWFrdLQKvsD9HV+2PwiWPHYZatNqbe6ykfwM206SjgoXwAHpNkD57l+OrYCo1Oopamxv48gyHgd3KSuL20paT7NWL23agAoPfY75Z6+HRxZ1DL0IBHznPSyrDqbrSQHrpECK2VOLZGaux0t7gYDV3t4dAZE/pfFYSuwxGqojcOQIHBk5DvEvM016COLOoZehAI+cCp5xtXRekyIrFnUr2gABfnx3zs2KwL06TM4K62BAPHSBYEjvkxSyrDqbrSQHrpE7oHz/ADoPhsb7crdCwYdDdbMt+R4/KWPLc3pYxalPSy9mxDWuQ1wSLdJM1KasLMoYdCAR5Ga8PhKae4ioTx0qB6QKJh69bLqrK66qTfAMBwZTybukvX21o6ewjl7cDYAHvIMs9airDSyhl6EAjyM5UyjDA3FFAfsiBWNmcuq1qxxVa9rlluLamO4ED6oE1bUn+3Uv+P8AGZepqaghNyqk9SoJ84G6VDa7KahZcRSBLLbUBxGnergc7c5b4gVHA7Z09IFVWDgbyoBBPXeRaclTPMViayrhgUVfA8eLPyt3S11sqw7HU1JC3UoLzfh8NTQWRFUdFUD0ge0BsLm5tx6nrabIiAiIgIiICIiAiIgIiICIiAiIgYnHisCj7yLHqNx+PX4zsiR3xVyR03jcPYtNZ3CLpZQgNyS3dwHykiiACwAA7hYT3MTDFxsWKP7dYh7a9r+ZceYZbRrrpqorjkTuI8GG8fCQFfYXDk3V3XuOlh8N1/nLbEnYqlQ2Fw4N3eo/d2VHx3X+csGAy6jQXTSpqg524nxY7z8Z2xAREQEREBERAREQEREBERAREQEREBERAREQEREBERAREQEREBERAREQEREBERA//9k=;" vertex="1" parent="1">
                    <mxGeometry x="439.67" y="175" width="130.65" height="40" as="geometry"/>
                </mxCell>
                <mxCell id="8" value="フロントエンド" style="rounded=0;whiteSpace=wrap;html=1;fillColor=#4D9900;strokeColor=#4D9900;strokeWidth=3;" vertex="1" parent="1">
                    <mxGeometry x="70" y="90" width="100" height="30" as="geometry"/>
                </mxCell>
                <mxCell id="10" value="バックエンド" style="rounded=0;whiteSpace=wrap;html=1;fillColor=#FF8000;strokeColor=#FF8000;strokeWidth=3;" vertex="1" parent="1">
                    <mxGeometry x="400" y="90" width="100" height="30" as="geometry"/>
                </mxCell>
                <mxCell id="11" value="" style="shape=image;verticalLabelPosition=bottom;labelBackgroundColor=#ffffff;verticalAlign=top;aspect=fixed;imageAspect=0;image=data:image/png,iVBORw0KGgoAAAANSUhEUgAAAToAAAChCAMAAABgSoNaAAAA9lBMVEX///91dXX/yytra2v/yipvb29xcXH1ggvW1tbi4uL/zDDf39//pQ5paWm3t7f5+fnr6+v/0jeAgICjo6P/ogCbm5v/qBWQkJC/v7/yeADx8fHFxcXOzs57e3uJiYmysrKUlJSqqqr1nCv8nQD/yBH+xQD/+/T+7sL6sCz3x3/2s0b68eP569f8uVL33Lj96Mr5z5j7vmn9rCL21KX+xnn13Zj7u1/56dP3iQD1mBD+vmXyjBD+sTz20Wn8zT36pzT26MTxjwP+3Hz+01D2yIz/6Kn/4Ir338L857P60Vv62a/7sF35vRXzz4v2yGr3wkj1vC3zw1v16zLiAAAIwElEQVR4nO2b/WObNhrHARkFB2M8g19mMLZnnDZNljSX3trccuu62+2la7vd///PnB5JgAA5wVkcl+35/GL7EZLF14/06JGwYSAIgiAIgiAIgiAIgiAIgiAIgiAIgiAIgiAIgiAIgiAIgiAIgiAIgiAIgiDIX47TF2eH7kJLOQ97Xx+6Dy3lojcOLw/diXbysjce3x66E+3kikkXXhy6F63k+Zjxj0P3opX0QLrw+tDdaCFn4ZjjH7oj7eNSSBe+PHRH2se19LreCf94cnt7cuAetYZXPSFdeCo+huGrA/eoNdxK6cYhpGNnYa8XYl7WjHFGeMU+XYF0V2o5ho9tnMipbswkO+dOV3a7Z9/983Cd+7y5zKIEU+xr4xsh3Td58bPUStHv9LwPM+WYZC/X/LW3fi1Ln6XHx+n5QTv4+XKqSNd7cyO0C1+IQlDuOH2mr+kP6jDzrN8fNP/6Gas0+9M3cRj+1SuUuzn69ka6Hd+F4sodW1smO8cjFTxiGF3Ptj2n8dcvPOItH+M+DsC4lyvXOzo6ytwOdqGEcsfWv/U1HWLWMIyEshfa+Ov7tklHj3MnTw0EWClc7x2TLne7i0y5Y+s7fVW9dPzFaxxZWizduSLdEfBOut3bTLnjbSGWSzcsYxhL8Lp54+9vsXQXYcnpcrdbP7eOM1J9dsGlq1lnJpvzuo2/v8XSvQx7JaeTbrd+/kWunJV+r62ql84w4miHhWCLpbsKy04n3K6knJXqQ+w26XaixdLdVp2Oud1NWTmr84O26t9duly5b3Pp3rwrK2d19CH2by7dWTZe17lyR1++LSvHRqy2bmPpXMfJ8otBPF1MYyXbyKWbQYlTmyXdqM/M1XyDWftR9WLfAav7VBn367DmdF9+VVXO0odYvXQ+W6LMQZvBfDicsM8rnmcEUBYPWarB8MxpdrmUzk14CbtOVQnqCnOi5CezQFqJenFu9UY75IF/guuw6nQa5Sx9FrtFOmb1oPNdz6RDdhHla2SwTIo1tG3K9QtItzICLyugXpQ35dp2XqHI1iKPai4uWRePpM6dnErp3tylnJX+V1d3i3TsdgmXjhUnA6EJTVjBnKdoNhGCyDwXpOsHtigQKvez9nndzE7lMnvqCaOwetJ9F17WNljJU8yeLypOp1VuS4htIl3CHMweDr3YMIbspihdxU68mNuZI4J0JiuhZBSxApMXCFeaedw7F7ETjcB16RKs/Lcgo9h144DkrUTcOokcZ7oEK3kCvxuXnU6vnNX5j64ul85R4NN/SToQKzb4Jv0K7IGsGrEyNpoNIR1TaClnrX4hR0IKCWawqcD9dMXe2HKwD2BwQpPCtzMr/EY75DMPxA/lZtOdyjF0lbl0pT0nGD0V6eYy4MHd2UFeNwZdQAounVIAjdIJvJst1ElrKN2OuTHNra4XcIkmMErzkOGbWRP75DxUnW67ctoQW9s5sWGklaUj2Q0FtLwpsKTi9rh0Q6UADJ6MkUpGB63ZBpfQ7udWUc4CkvgdJC4pmtgbF6HidNuV02exXDqq4NWkKxyEWW11AxRKiS+UIq7aLPwGmqnKFM2OwMEqS7cFsyWqAfSdGvvlx7BwujuU04dYLl2gAtqUpCPZlAOOYLsqUjLudaVmVSFm09GclU9WDoxUuJ6HXXtRmspgMC+6RdNdpu/eUxR+AHZzr3JW+pOmcoMISzL/iOzKvEjkAK8nYo4cmky4pSfWK5SS+VB655JPjoRM+rmvgoWqbdPKJLAPnodZ3n+ncvoQ20S6zDq1zTowaTHpKsNzkEkee1I3Kle7YmDL5TNbxHlLbphpdqt1PXtUeIB9d79yVkcXYneRDkZhyTF4RF4I6fqlBkAJiC58aFIvCRaLYEjsXDrDGUpnZKXgsINqpBc8plB1ztbS6e5TrrPRhNgdvY4uB90Ks7u8jos1khHaB+3zcNLtT2SOYU+k1k617T0v7H5eC6e7V7mOLsTuIh3MdUntWmPbXEdFDXtVmJNKJO5OeUpMIi4yeZqUvwB21xsp10l/qdfeRTpXjRkqWyMsX4UoZlqRDhqVJ0hPsRap8ioEp2ugXEcXYneRziByxVxcJ174uq504i3jB0u9aJFk8C8T0rmFg8U2P7eE5KwUUJ/gcYIX4bqZcp3Or/XaO0kXVJwoljlULZtYyGyiIt1chAk/TpSHBfgsNxDZhPq72Em8mxC7AzuczZTThdidpIMclhaznU9l5i5y2GK2iz2ZrJa15qe7TLq4pJIjvI4/caCM5sA2SfND9Adxsl43Va6zqT9gvJN0fOeEDmXcc81sg0TunCRyFC74zgkMONggoIkYet2hna3r+LaInNhmc+mxYidKWn3YjFIDzD64XL9pqlxnU39SbDfp+E2bJOnH0SLhAvHlXL5ft5zG0Yry/Tox2vjCjQRRLEKpzCb4+tce9mNH7tfxiyOxt7diFwewaKHNHz94GO/XjZXThdgdpfOF68D5Afc54RewrpuuwMNsW+4SS+9x5SYxN3vORI5JYbblui7bAeyrF5u0ukHw6Px41Fi5juYY2/FYhlSz+oRSeTbB3pSKRppThT6hpG+s8hK7CLfyWENenbDW+HTWNe2ilXxcxkQ5x5js/VTst+bK6UKsm0wm9R1Fn1n5FDWAN5UaS3lqZednWVEySZiK3YlHeMFKuWtfHHKxXJX9FAFrLTsKMuXx2URJGfzcmjR/uu/BKCfVupS/wuN8pxtNp7EuSfKdaBq5mstr560GHOfq7HrrXrj+YDX1ufQD/v2uhP9xYzVRLt18xKfYq5x9YuLdo5y1+YT/GtPx+vf0TuWsze/48P82Lv6oiqcIl/7x86H791lz/SHVKmdhdLiX2elGoxxGh0ac/W9TVW7zqa1/o3lqLsWUh9HhIbxnUx5GhwfycZNidHggJ582afoBo8ODOLu4wNwBQRAEQRAEQRAEQRAEQRAEQRAEQRAEQRAEQRAEQRAEQRAEQRAEQRAEQRAEQZC/CP8H9m+8eWiROFcAAAAASUVORK5CYII=;" vertex="1" parent="1">
                    <mxGeometry x="220" y="90" width="114" height="58.45" as="geometry"/>
                </mxCell>
                <mxCell id="13" value="" style="endArrow=classic;startArrow=classic;html=1;strokeColor=#66B2FF;exitX=1;exitY=0.5;exitDx=0;exitDy=0;entryX=0;entryY=0.5;entryDx=0;entryDy=0;" edge="1" parent="1" source="4" target="9">
                    <mxGeometry width="50" height="50" relative="1" as="geometry">
                        <mxPoint x="310" y="200" as="sourcePoint"/>
                        <mxPoint x="360" y="150" as="targetPoint"/>
                    </mxGeometry>
                </mxCell>
                <mxCell id="14" value="Firebase SDK" style="text;html=1;resizable=0;autosize=1;align=center;verticalAlign=middle;points=[];fillColor=none;strokeColor=none;rounded=0;fontColor=#66B2FF;fontStyle=1;fontSize=14;" vertex="1" parent="1">
                    <mxGeometry x="290" y="210" width="110" height="20" as="geometry"/>
                </mxCell>
            </root>
        </mxGraphModel>
    </diagram>
</mxfile>